<mxfile host="app.diagrams.net" modified="2022-01-17T11:48:53.105Z" agent="5.0 (Windows NT 10.0; Win64; x64) AppleWebKit/537.36 (KHTML, like Gecko) Chrome/97.0.4692.71 Safari/537.36" etag="xmlgbqY0QviWpXkxr_zO" version="16.2.7" type="github">
  <diagram id="MzRHrMzxviT27fW-2s3e" name="Page-1">
    <mxGraphModel dx="868" dy="2370" grid="1" gridSize="10" guides="1" tooltips="1" connect="1" arrows="1" fold="1" page="1" pageScale="1" pageWidth="1200" pageHeight="1920" math="0" shadow="0">
      <root>
        <mxCell id="0" />
        <mxCell id="1" parent="0" />
        <mxCell id="H5uDNCCzYJQfximPwtl9-16" value="&lt;strike&gt;User Message&lt;/strike&gt;" style="rounded=0;orthogonalLoop=1;jettySize=auto;html=1;startArrow=none;startFill=0;endArrow=block;endFill=0;strokeColor=default;dashed=1;entryX=0;entryY=0;entryDx=0;entryDy=0;exitX=0;exitY=1;exitDx=0;exitDy=0;" edge="1" parent="1" source="H5uDNCCzYJQfximPwtl9-1" target="H5uDNCCzYJQfximPwtl9-2">
          <mxGeometry relative="1" as="geometry" />
        </mxCell>
        <mxCell id="H5uDNCCzYJQfximPwtl9-21" style="rounded=0;orthogonalLoop=1;jettySize=auto;html=1;exitX=1;exitY=1;exitDx=0;exitDy=0;startArrow=none;startFill=0;endArrow=block;endFill=0;strokeColor=default;shape=flexArrow;entryX=0;entryY=0;entryDx=0;entryDy=0;" edge="1" parent="1" source="H5uDNCCzYJQfximPwtl9-1" target="H5uDNCCzYJQfximPwtl9-3">
          <mxGeometry relative="1" as="geometry">
            <mxPoint x="440" y="225" as="targetPoint" />
          </mxGeometry>
        </mxCell>
        <mxCell id="H5uDNCCzYJQfximPwtl9-22" value="Start GUI" style="edgeLabel;html=1;align=center;verticalAlign=middle;resizable=0;points=[];" vertex="1" connectable="0" parent="H5uDNCCzYJQfximPwtl9-21">
          <mxGeometry x="-0.5946" relative="1" as="geometry">
            <mxPoint x="40" y="26" as="offset" />
          </mxGeometry>
        </mxCell>
        <mxCell id="H5uDNCCzYJQfximPwtl9-35" style="edgeStyle=orthogonalEdgeStyle;shape=flexArrow;rounded=0;orthogonalLoop=1;jettySize=auto;html=1;exitX=1;exitY=0.25;exitDx=0;exitDy=0;startArrow=none;startFill=0;endArrow=block;endFill=0;strokeColor=default;" edge="1" parent="1" source="H5uDNCCzYJQfximPwtl9-1" target="H5uDNCCzYJQfximPwtl9-34">
          <mxGeometry relative="1" as="geometry" />
        </mxCell>
        <mxCell id="H5uDNCCzYJQfximPwtl9-1" value="main.py" style="rounded=0;whiteSpace=wrap;html=1;" vertex="1" parent="1">
          <mxGeometry x="160" y="-40" width="120" height="60" as="geometry" />
        </mxCell>
        <mxCell id="H5uDNCCzYJQfximPwtl9-26" style="edgeStyle=orthogonalEdgeStyle;shape=flexArrow;rounded=0;orthogonalLoop=1;jettySize=auto;html=1;exitX=1;exitY=0.25;exitDx=0;exitDy=0;entryX=-0.004;entryY=0.085;entryDx=0;entryDy=0;entryPerimeter=0;startArrow=block;startFill=0;endArrow=block;endFill=0;strokeColor=default;" edge="1" parent="1" source="H5uDNCCzYJQfximPwtl9-2" target="H5uDNCCzYJQfximPwtl9-4">
          <mxGeometry relative="1" as="geometry" />
        </mxCell>
        <mxCell id="H5uDNCCzYJQfximPwtl9-27" value="memory&lt;br&gt;check,&lt;br&gt;receive&lt;br&gt;result" style="edgeLabel;html=1;align=center;verticalAlign=middle;resizable=0;points=[];" vertex="1" connectable="0" parent="H5uDNCCzYJQfximPwtl9-26">
          <mxGeometry x="0.3414" y="-4" relative="1" as="geometry">
            <mxPoint as="offset" />
          </mxGeometry>
        </mxCell>
        <mxCell id="H5uDNCCzYJQfximPwtl9-2" value="answer_handler.py" style="rounded=0;whiteSpace=wrap;html=1;" vertex="1" parent="1">
          <mxGeometry x="190" y="240" width="150" height="60" as="geometry" />
        </mxCell>
        <mxCell id="H5uDNCCzYJQfximPwtl9-9" value="memory file&lt;br&gt;(.aimind, pickle)" style="shape=hexagon;perimeter=hexagonPerimeter2;whiteSpace=wrap;html=1;fixedSize=1;" vertex="1" parent="1">
          <mxGeometry x="190" y="460" width="120" height="80" as="geometry" />
        </mxCell>
        <mxCell id="H5uDNCCzYJQfximPwtl9-23" value="" style="group" vertex="1" connectable="0" parent="1">
          <mxGeometry x="480" y="203.89" width="271.25" height="132.22222222222217" as="geometry" />
        </mxCell>
        <mxCell id="H5uDNCCzYJQfximPwtl9-4" value="memory_handler.py" style="rounded=0;whiteSpace=wrap;html=1;verticalAlign=top;" vertex="1" parent="H5uDNCCzYJQfximPwtl9-23">
          <mxGeometry width="271.25" height="132.22222222222223" as="geometry" />
        </mxCell>
        <mxCell id="H5uDNCCzYJQfximPwtl9-11" value="memory Python&amp;nbsp;list" style="ellipse;whiteSpace=wrap;html=1;" vertex="1" parent="H5uDNCCzYJQfximPwtl9-23">
          <mxGeometry y="69.9977777777778" width="105" height="62.22222222222222" as="geometry" />
        </mxCell>
        <mxCell id="H5uDNCCzYJQfximPwtl9-28" style="shape=flexArrow;rounded=0;orthogonalLoop=1;jettySize=auto;html=1;exitX=0;exitY=0.25;exitDx=0;exitDy=0;startArrow=none;startFill=0;endArrow=block;endFill=0;strokeColor=default;" edge="1" parent="H5uDNCCzYJQfximPwtl9-23" source="H5uDNCCzYJQfximPwtl9-4" target="H5uDNCCzYJQfximPwtl9-11">
          <mxGeometry relative="1" as="geometry" />
        </mxCell>
        <mxCell id="H5uDNCCzYJQfximPwtl9-24" style="edgeStyle=orthogonalEdgeStyle;shape=flexArrow;rounded=0;orthogonalLoop=1;jettySize=auto;html=1;exitX=0.017;exitY=0.883;exitDx=0;exitDy=0;entryX=0.853;entryY=-0.017;entryDx=0;entryDy=0;entryPerimeter=0;startArrow=none;startFill=0;endArrow=block;endFill=0;strokeColor=default;exitPerimeter=0;" edge="1" parent="1" source="H5uDNCCzYJQfximPwtl9-3" target="H5uDNCCzYJQfximPwtl9-2">
          <mxGeometry relative="1" as="geometry">
            <mxPoint x="440" y="266.98" as="sourcePoint" />
            <mxPoint x="287.04999999999995" y="480" as="targetPoint" />
            <Array as="points">
              <mxPoint x="422" y="140" />
              <mxPoint x="318" y="140" />
            </Array>
          </mxGeometry>
        </mxCell>
        <mxCell id="H5uDNCCzYJQfximPwtl9-25" value="Send&lt;br&gt;Text input text&lt;br&gt;(on button press),&lt;br&gt;receive evaluation&lt;br&gt;result" style="edgeLabel;html=1;align=center;verticalAlign=middle;resizable=0;points=[];" vertex="1" connectable="0" parent="H5uDNCCzYJQfximPwtl9-24">
          <mxGeometry x="-0.3272" y="3" relative="1" as="geometry">
            <mxPoint x="-50" y="-23" as="offset" />
          </mxGeometry>
        </mxCell>
        <mxCell id="H5uDNCCzYJQfximPwtl9-3" value="gui_handler.py" style="rounded=0;whiteSpace=wrap;html=1;" vertex="1" parent="1">
          <mxGeometry x="420" y="60" width="120" height="60" as="geometry" />
        </mxCell>
        <mxCell id="H5uDNCCzYJQfximPwtl9-32" style="edgeStyle=none;shape=flexArrow;rounded=0;orthogonalLoop=1;jettySize=auto;html=1;exitX=0;exitY=0.25;exitDx=0;exitDy=0;startArrow=block;startFill=0;endArrow=block;endFill=0;strokeColor=default;" edge="1" parent="1" source="H5uDNCCzYJQfximPwtl9-29" target="H5uDNCCzYJQfximPwtl9-9">
          <mxGeometry relative="1" as="geometry" />
        </mxCell>
        <mxCell id="H5uDNCCzYJQfximPwtl9-33" value="Save&lt;br&gt;Load" style="edgeLabel;html=1;align=center;verticalAlign=middle;resizable=0;points=[];" vertex="1" connectable="0" parent="H5uDNCCzYJQfximPwtl9-32">
          <mxGeometry x="-0.3424" y="5" relative="1" as="geometry">
            <mxPoint x="-24" y="-1" as="offset" />
          </mxGeometry>
        </mxCell>
        <mxCell id="H5uDNCCzYJQfximPwtl9-38" value="All logging operations" style="shape=flexArrow;rounded=0;orthogonalLoop=1;jettySize=auto;html=1;exitX=0;exitY=1;exitDx=0;exitDy=0;startArrow=none;startFill=0;endArrow=block;endFill=0;strokeColor=default;" edge="1" parent="1" source="H5uDNCCzYJQfximPwtl9-29" target="H5uDNCCzYJQfximPwtl9-40">
          <mxGeometry relative="1" as="geometry">
            <mxPoint x="415.7142857142858" y="575.7142857142858" as="targetPoint" />
          </mxGeometry>
        </mxCell>
        <mxCell id="H5uDNCCzYJQfximPwtl9-29" value="file_handler.py" style="rounded=0;whiteSpace=wrap;html=1;" vertex="1" parent="1">
          <mxGeometry x="480" y="480" width="120" height="60" as="geometry" />
        </mxCell>
        <mxCell id="H5uDNCCzYJQfximPwtl9-30" style="edgeStyle=none;shape=flexArrow;rounded=0;orthogonalLoop=1;jettySize=auto;html=1;exitX=0.5;exitY=1;exitDx=0;exitDy=0;entryX=0.5;entryY=0;entryDx=0;entryDy=0;startArrow=block;startFill=0;endArrow=block;endFill=0;strokeColor=default;" edge="1" parent="1" source="H5uDNCCzYJQfximPwtl9-11" target="H5uDNCCzYJQfximPwtl9-29">
          <mxGeometry relative="1" as="geometry" />
        </mxCell>
        <mxCell id="H5uDNCCzYJQfximPwtl9-31" value="Solid memory&lt;br&gt;dynamic memory&lt;br&gt;equalizations" style="edgeLabel;html=1;align=center;verticalAlign=middle;resizable=0;points=[];" vertex="1" connectable="0" parent="H5uDNCCzYJQfximPwtl9-30">
          <mxGeometry x="-0.2609" y="-2" relative="1" as="geometry">
            <mxPoint x="-3" y="33" as="offset" />
          </mxGeometry>
        </mxCell>
        <mxCell id="H5uDNCCzYJQfximPwtl9-34" value="Start logging" style="rhombus;whiteSpace=wrap;html=1;" vertex="1" parent="1">
          <mxGeometry x="450" y="-70" width="80" height="80" as="geometry" />
        </mxCell>
        <mxCell id="H5uDNCCzYJQfximPwtl9-40" value="log.txt" style="shape=hexagon;perimeter=hexagonPerimeter2;whiteSpace=wrap;html=1;fixedSize=1;" vertex="1" parent="1">
          <mxGeometry x="250" y="600" width="120" height="80" as="geometry" />
        </mxCell>
      </root>
    </mxGraphModel>
  </diagram>
</mxfile>
